<?xml version="1.0" standalone="no"?>
<!DOCTYPE svg PUBLIC "-//W3C//DTD SVG 20010904//EN"
 "http://www.w3.org/TR/2001/REC-SVG-20010904/DTD/svg10.dtd">
<svg version="1.0" xmlns="http://www.w3.org/2000/svg"
 width="176" height="52" viewBox="0 0 1488.000000 296.000000"
 preserveAspectRatio="xMidYMid meet">

<g transform="translate(0.000000,296.000000) scale(0.100000,-0.100000)"
fill="hsl(15, 65%, 54%" stroke="none" fill-rule="evenodd">
<path d="M0 2837 l0 -123 68 4 c93 5 92 4 92 62 0 41 3 50 18 50 9 0 621 3
1359 6 l1342 6 3 -763 c2 -420 2 -1035 0 -1366 l-3 -603 -54 0 -55 0 0 -55 0
-55 6055 0 6055 0 0 1480 0 1480 -7440 0 -7440 0 0 -123z m7892 -1434 l3 -608
53 -28 c28 -16 52 -35 52 -43 0 -12 -27 -14 -177 -12 -200 3 -218 11 -129 55
l56 27 0 512 0 512 -52 46 c-37 31 -50 48 -43 55 14 14 195 89 217 90 17 1 18
-36 20 -606z m1997 457 c200 -21 308 -100 318 -233 9 -107 -49 -203 -154 -257
-43 -22 -49 -40 -13 -40 33 0 123 -39 171 -74 89 -66 122 -185 82 -302 -21
-62 -98 -140 -173 -177 -107 -52 -150 -57 -462 -57 -183 0 -288 4 -288 10 0 5
32 26 70 45 l70 35 0 478 0 478 -70 34 c-120 58 -103 63 220 68 74 1 177 -3
229 -8z m-6103 -21 c84 -15 157 -53 202 -104 45 -51 62 -100 62 -177 0 -99
-77 -208 -185 -260 -25 -12 -44 -26 -43 -30 2 -4 75 -113 162 -241 150 -220
162 -235 215 -263 89 -49 77 -59 -68 -59 l-125 0 -165 262 -166 263 -82 0 -83
0 0 -214 0 -214 63 -34 c34 -19 63 -42 65 -52 3 -15 -14 -16 -207 -14 -131 2
-212 7 -213 13 -1 6 29 26 65 45 l67 35 -2 479 -3 479 -60 33 c-33 19 -64 35
-69 37 -5 2 -6 9 -2 15 9 16 488 17 572 1z m2742 -347 l112 -3 0 -39 0 -39
-112 -3 -113 -3 -3 -245 c-2 -159 1 -258 8 -283 16 -53 58 -70 162 -65 85 3
92 -2 57 -46 -35 -45 -96 -70 -169 -71 -77 0 -129 22 -163 69 -21 30 -22 41
-27 336 l-5 305 -70 5 -70 5 73 38 c69 36 75 42 135 135 l62 97 5 -95 5 -95
113 -3z m5167 16 c2 -7 7 -40 10 -72 l7 -60 51 58 c76 87 138 105 225 66 30
-14 42 -25 42 -40 0 -20 -38 -120 -46 -120 -2 0 -26 9 -54 20 -87 34 -153 22
-199 -36 -20 -25 -21 -39 -21 -244 0 -120 3 -231 6 -248 5 -26 16 -34 66 -56
97 -42 77 -51 -130 -54 -154 -2 -182 0 -182 12 0 8 24 27 53 43 l52 28 3 256
2 257 -51 46 c-28 25 -49 50 -47 56 3 10 180 97 201 99 4 1 9 -5 12 -11z m950
-12 c61 -29 107 -76 134 -137 24 -54 47 -187 34 -200 -5 -5 -123 -10 -263 -11
l-255 -3 2 -40 c7 -101 64 -194 147 -238 34 -18 58 -22 136 -22 84 0 103 4
168 32 50 22 72 27 72 18 0 -24 -102 -126 -154 -153 -46 -24 -61 -27 -156 -27
-129 0 -185 21 -255 96 -57 61 -82 115 -94 205 -24 168 42 347 163 439 89 68
227 85 321 41z m796 9 c51 -18 78 -38 105 -80 17 -27 19 -53 22 -307 4 -318
-4 -293 102 -305 33 -3 60 -10 60 -15 0 -16 -49 -59 -85 -74 -75 -31 -157 -7
-190 56 -8 16 -18 30 -21 30 -3 0 -20 -11 -37 -24 -82 -61 -184 -88 -271 -72
-44 8 -104 59 -122 103 -30 71 -7 169 52 225 43 40 127 75 255 106 l114 28 0
85 c0 71 -4 89 -22 115 -46 64 -156 86 -209 41 -22 -19 -28 -34 -33 -88 l-6
-64 -61 -3 c-73 -3 -90 10 -80 62 14 71 77 132 182 175 61 25 181 28 245 6z
m-6164 -27 c58 -29 84 -64 94 -125 4 -26 8 -156 8 -289 l1 -241 25 -11 c14 -7
50 -12 80 -12 66 0 71 -14 20 -59 -85 -74 -182 -62 -249 34 -14 19 -15 19 -52
-7 -134 -93 -288 -98 -362 -13 -54 61 -56 166 -5 239 38 54 136 104 268 134
55 13 108 26 118 29 14 4 17 16 17 79 0 84 -13 118 -60 157 -38 33 -91 43
-141 28 -46 -14 -69 -51 -69 -110 0 -65 -5 -71 -69 -71 -31 0 -62 5 -69 12
-27 27 -1 120 44 159 32 27 91 60 146 80 72 27 190 21 255 -13z m1346 3 l57
-22 0 -95 c0 -116 -8 -118 -72 -24 -23 35 -58 73 -77 84 -60 34 -164 16 -191
-33 -17 -33 -12 -96 11 -125 11 -14 76 -54 146 -88 145 -72 185 -106 202 -171
24 -98 8 -164 -58 -228 -60 -58 -120 -79 -220 -79 -79 0 -130 10 -193 37 l-38
16 0 99 c0 58 4 98 10 98 5 0 24 -25 41 -55 41 -73 81 -112 127 -125 127 -35
229 25 219 128 -6 61 -34 86 -162 148 -175 84 -218 131 -218 235 0 91 57 170
153 214 50 22 187 15 263 -14z m5429 -255 c3 -269 4 -286 24 -312 52 -70 129
-89 238 -60 111 30 106 17 106 304 0 136 -4 254 -10 262 -5 8 -33 26 -61 40
-90 43 -78 51 73 48 l133 -3 3 -348 2 -349 60 -25 c96 -42 81 -53 -70 -53
l-130 0 0 50 c0 29 -4 50 -11 50 -6 0 -29 -16 -52 -35 -134 -115 -323 -111
-411 8 -20 27 -21 44 -26 325 l-5 297 -52 28 c-86 46 -73 57 66 57 l119 0 4
-284z m-9243 259 c54 -19 88 -46 128 -102 33 -46 63 -150 63 -217 l0 -36 -261
0 -262 0 6 -56 c7 -72 48 -155 95 -194 93 -77 249 -79 390 -6 26 13 32 14 32
3 0 -26 -68 -104 -117 -134 -72 -46 -114 -56 -212 -51 -146 7 -241 69 -299
196 -31 68 -42 210 -22 293 35 150 140 270 270 310 43 13 145 10 189 -6z m606
-45 c4 -33 9 -60 11 -60 2 0 28 20 58 44 78 63 126 79 229 75 76 -4 90 -7 129
-34 78 -54 81 -69 86 -392 l5 -283 51 -28 c28 -15 50 -31 49 -37 -4 -14 -373
-19 -373 -5 0 6 26 23 58 38 31 15 61 32 65 37 4 6 7 114 5 241 -4 208 -6 234
-24 264 -31 54 -77 75 -159 74 -71 -1 -160 -30 -177 -57 -4 -7 -8 -127 -8
-269 l0 -256 65 -31 c36 -16 65 -35 65 -40 0 -7 -62 -11 -185 -11 -209 0 -224
7 -129 54 l57 27 -7 106 c-3 58 -6 176 -6 262 l0 156 -50 40 c-28 22 -49 44
-47 49 4 11 185 94 209 95 12 1 18 -12 23 -59z m5285 -210 c0 -224 3 -276 16
-310 18 -44 59 -75 117 -85 47 -9 155 11 196 36 l31 19 0 266 0 265 -60 26
c-96 42 -81 53 70 53 l130 0 2 -347 3 -348 63 -30 c98 -46 85 -56 -70 -53
l-133 3 -3 53 -3 53 -42 -36 c-74 -63 -141 -90 -227 -89 -117 0 -197 52 -219
140 -7 25 -11 151 -11 308 l0 265 -52 28 c-85 46 -77 53 66 53 l126 0 0 -270z"/>
<path d="M9670 1566 l0 -206 88 0 c189 0 282 67 282 202 0 84 -31 136 -103
172 -51 25 -73 30 -163 34 l-104 5 0 -207z"/>
<path d="M9670 1034 l0 -227 138 5 c114 4 146 8 187 27 96 43 145 110 145 198
0 75 -16 117 -60 156 -57 52 -119 67 -277 67 l-133 0 0 -226z"/>
<path d="M3512 1538 l3 -213 91 1 c111 2 154 15 207 63 50 45 67 85 67 156 0
138 -91 205 -276 205 l-94 0 2 -212z"/>
<path d="M12437 1437 c-51 -16 -102 -69 -121 -125 -30 -87 -41 -82 175 -82
l191 0 -7 38 c-10 56 -56 134 -90 154 -41 23 -102 30 -148 15z"/>
<path d="M13315 1091 c-138 -40 -185 -81 -185 -163 0 -42 5 -54 30 -80 30 -30
32 -30 113 -26 45 3 99 12 120 21 l37 16 0 125 0 126 -27 -1 c-16 0 -55 -8
-88 -18z"/>
<path d="M7144 1080 c-90 -23 -169 -63 -190 -95 -21 -32 -22 -107 -1 -139 25
-38 86 -51 169 -38 36 7 78 17 92 23 l26 12 0 129 c0 96 -3 128 -12 127 -7 0
-45 -9 -84 -19z"/>
<path d="M4617 1415 c-66 -23 -114 -86 -132 -172 l-7 -33 191 0 191 0 0 28 c0
34 -41 121 -68 145 -23 21 -87 46 -117 46 -11 0 -37 -6 -58 -14z"/>
<path d="M5 1255 c0 -693 1 -975 2 -627 2 349 2 916 0 1260 -1 345 -2 60 -2
-633z"/>
<path d="M610 2335 c-12 -14 0 -945 12 -945 4 0 8 20 8 43 0 75 16 82 187 82
140 0 145 -1 164 -24 12 -15 19 -39 19 -66 0 -34 4 -44 24 -53 20 -9 27 -7 52
19 47 49 68 41 182 -66 58 -55 102 -105 104 -118 l3 -22 285 0 285 0 6 39 c3
21 12 42 20 47 8 5 71 9 140 9 138 0 144 -2 155 -58 6 -28 10 -32 40 -32 l34
0 0 250 0 250 -407 2 -407 3 -46 320 c-36 250 -49 320 -60 322 -8 1 -190 4
-403 6 -280 2 -390 0 -397 -8z m765 -77 c18 -105 102 -934 95 -941 -4 -5 -84
53 -177 127 l-170 136 -199 2 -199 3 -3 340 c-1 187 0 346 3 352 3 10 77 13
324 13 l320 0 6 -32z m403 -816 c-4 -147 -22 -153 -26 -8 -3 116 2 146 19 129
6 -6 9 -56 7 -121z m152 2 c0 -95 -3 -114 -15 -114 -12 0 -15 19 -15 113 0 63
3 117 6 120 18 17 24 -14 24 -119z m140 0 c0 -63 -4 -114 -9 -114 -10 0 -25
199 -15 223 15 39 24 -1 24 -109z"/>
<path d="M820 1765 l0 -155 145 0 145 0 0 40 0 39 -112 3 -113 3 -3 113 -3
112 -29 0 -30 0 0 -155z"/>
<path d="M1930 1905 l0 -185 55 0 55 0 0 185 0 185 -55 0 -55 0 0 -185z"/>
<path d="M1700 1800 l0 -80 55 0 55 0 0 80 0 80 -55 0 -55 0 0 -80z"/>
<path d="M722 1418 c-6 -6 -12 -29 -12 -49 0 -34 -3 -38 -37 -50 -21 -6 -55
-20 -75 -30 -21 -11 -39 -15 -43 -9 -3 5 -19 19 -35 30 l-30 21 -60 -57 c-33
-31 -60 -64 -60 -72 0 -8 11 -27 25 -44 24 -28 24 -30 8 -61 -9 -18 -22 -50
-28 -72 -11 -38 -15 -40 -56 -45 l-44 -5 -3 -97 -3 -97 42 -3 c45 -3 44 -2 83
-92 l26 -58 -25 -30 c-14 -16 -25 -35 -25 -42 0 -13 111 -126 125 -126 5 0 21
12 36 26 l27 26 65 -26 c36 -14 70 -26 76 -26 11 0 18 -22 23 -70 3 -24 6 -25
86 -28 97 -3 112 4 112 58 0 32 4 39 26 44 14 4 47 16 71 28 30 14 50 18 58
12 7 -5 24 -18 39 -28 l27 -19 60 59 c32 32 59 65 59 73 0 8 -12 27 -26 42
-23 24 -24 30 -13 50 6 13 20 46 30 74 17 48 19 50 61 55 l43 5 0 95 0 95 -44
5 c-43 5 -44 6 -66 65 -12 33 -25 67 -29 75 -4 10 3 25 19 40 14 13 25 31 25
40 0 17 -111 130 -128 130 -4 0 -19 -11 -32 -25 -13 -14 -28 -25 -34 -25 -6 0
-42 13 -81 28 -70 29 -70 29 -75 73 l-5 44 -85 3 c-58 2 -89 -1 -98 -10z m201
-254 c61 -21 141 -93 175 -158 36 -68 38 -196 6 -267 -31 -66 -87 -124 -152
-156 -75 -37 -191 -39 -263 -6 -142 65 -216 218 -179 371 21 91 105 183 197
217 52 19 159 18 216 -1z"/>
<path d="M695 1126 c-65 -31 -112 -78 -143 -145 -34 -73 -29 -186 11 -254 73
-123 205 -173 347 -131 72 21 150 98 175 173 22 68 17 169 -13 226 -27 53 -87
109 -142 134 -65 30 -169 28 -235 -3z m208 -186 c46 -51 34 -133 -25 -171 -79
-49 -178 4 -178 95 0 111 128 159 203 76z"/>
<path d="M785 951 c-92 -39 -68 -171 31 -171 103 0 115 152 14 174 -14 3 -34
1 -45 -3z"/>
<path d="M2035 1188 c-2 -7 -5 -24 -7 -37 -2 -19 -16 -30 -61 -49 l-58 -25
-25 23 -24 24 -45 -44 c-25 -24 -45 -49 -45 -54 0 -5 9 -20 21 -32 l20 -22
-20 -41 c-12 -22 -21 -47 -21 -55 0 -16 -21 -26 -56 -26 -24 0 -25 -2 -22 -67
l3 -68 33 -5 c28 -4 36 -13 57 -58 l25 -53 -22 -30 -22 -30 47 -46 46 -47 30
22 30 22 55 -25 c45 -20 55 -29 58 -52 3 -27 5 -28 70 -31 l67 -3 3 32 c3 28
9 35 61 57 l58 25 25 -23 24 -24 45 44 c50 49 52 55 28 82 -16 17 -15 22 4 76
18 52 23 57 54 62 l34 5 0 70 0 70 -33 5 c-28 4 -36 13 -58 59 l-25 54 21 22
c11 12 20 26 20 31 0 5 -20 30 -45 54 l-45 44 -24 -24 -25 -23 -58 25 c-52 22
-59 29 -63 59 l-5 34 -63 3 c-44 2 -64 -1 -67 -10z m131 -183 c107 -32 168
-115 169 -230 0 -85 -27 -142 -92 -191 -96 -73 -223 -65 -307 20 -45 44 -76
115 -76 171 0 95 77 201 167 229 62 19 79 19 139 1z"/>
<path d="M2050 981 c-75 -23 -125 -71 -149 -140 -34 -102 14 -211 113 -257 57
-27 91 -29 147 -13 151 46 198 240 86 353 -57 56 -129 77 -197 57z m90 -126
c59 -31 68 -98 20 -147 -27 -26 -36 -30 -68 -25 -91 15 -112 136 -30 172 42
18 43 18 78 0z"/>
<path d="M2060 820 c-11 -11 -20 -31 -20 -45 0 -29 32 -65 58 -65 57 0 86 82
40 114 -30 21 -54 20 -78 -4z"/>
<path d="M1400 1070 c0 -23 5 -30 19 -30 33 0 40 -24 43 -141 l3 -114 70 0 70
0 2 45 c3 65 11 90 31 90 10 0 23 15 33 39 15 34 15 41 2 53 -16 17 -19 45 -8
71 7 16 -3 17 -129 17 l-136 0 0 -30z"/>
</g>
</svg>
