<?xml version="1.0" standalone="no"?>
<!DOCTYPE svg PUBLIC "-//W3C//DTD SVG 20010904//EN"
 "http://www.w3.org/TR/2001/REC-SVG-20010904/DTD/svg10.dtd">
<svg version="1.0" xmlns="http://www.w3.org/2000/svg"
 width="176" height="52" viewBox="0 0 2000.000000 409.000000"
 preserveAspectRatio="xMidYMid meet">

<g transform="translate(0.000000,409.000000) scale(0.100000,-0.100000)"
fill="hsl(15, 65%, 54%" stroke="none">
<path d="M388 3993 l-3 -88 -92 -3 -93 -3 0 -1854 0 -1855 1860 0 1860 0 0 95
0 95 90 0 90 0 0 1850 0 1850 -1855 0 -1854 0 -3 -87z m1381 -598 c189 -2 345
-5 346 -7 1 -2 28 -190 59 -418 32 -228 60 -423 62 -432 5 -17 42 -18 552 -20
l547 -3 3 -343 2 -343 -52 3 -53 3 -6 49 c-8 74 -15 76 -215 76 l-173 0 -20
-26 c-13 -17 -21 -41 -21 -65 l0 -39 -385 0 -385 0 0 28 c0 22 -25 52 -137
160 -76 72 -146 135 -156 138 -31 10 -67 -5 -102 -44 l-34 -36 -35 17 c-35 16
-36 18 -36 76 0 49 -4 65 -24 88 l-24 28 -197 0 -197 0 -24 -28 c-20 -23 -24
-39 -24 -88 0 -46 -3 -59 -15 -59 -13 0 -15 79 -15 649 l0 650 208 -4 c114 -3
362 -7 551 -10z m1171 -595 l0 -250 -75 0 -75 0 0 250 0 250 75 0 75 0 0 -250z
m-312 -137 l-3 -108 -72 -3 -73 -3 0 111 0 110 75 0 76 0 -3 -107z m-1220
-506 c6 -7 12 -37 14 -66 l3 -53 70 -25 c39 -14 79 -32 90 -39 30 -21 48 -17
85 21 19 19 40 35 48 35 18 0 160 -137 168 -162 4 -13 -6 -31 -30 -58 -40 -44
-43 -56 -22 -85 7 -11 25 -51 39 -90 l25 -70 53 -3 c29 -2 59 -8 66 -14 18
-15 18 -231 0 -246 -7 -6 -37 -12 -66 -14 l-54 -3 -18 -53 c-10 -29 -28 -73
-40 -97 l-22 -44 36 -41 c21 -22 37 -46 37 -52 0 -15 -160 -178 -174 -178 -6
0 -27 17 -48 37 -35 34 -41 36 -66 26 -85 -35 -149 -61 -164 -66 -14 -5 -18
-18 -18 -61 0 -44 -4 -57 -19 -66 -24 -13 -211 -13 -231 0 -9 5 -17 31 -20 66
-5 53 -7 58 -35 67 -16 5 -60 23 -97 39 l-67 30 -44 -36 c-24 -20 -48 -36 -53
-36 -13 0 -174 163 -174 175 0 6 16 27 36 46 41 39 41 38 -10 159 l-35 85 -53
3 c-72 4 -78 14 -78 135 0 128 5 137 76 137 43 0 56 4 61 18 5 15 31 79 66
164 10 25 8 31 -26 66 -20 21 -37 42 -37 47 0 14 163 175 177 175 7 0 31 -16
53 -36 l40 -37 68 31 c37 16 81 34 97 39 28 9 30 13 33 63 2 30 8 60 14 67 7
9 44 13 123 13 79 0 116 -4 123 -13z m1700 -319 c7 -7 12 -29 12 -50 0 -28 5
-40 18 -44 9 -3 45 -17 80 -31 l63 -26 28 27 c15 14 31 26 37 26 13 0 124
-113 124 -126 0 -6 -12 -21 -26 -35 -29 -27 -28 -35 9 -124 25 -58 27 -60 69
-65 l43 -5 3 -92 3 -92 -47 -3 -46 -3 -25 -65 c-38 -102 -38 -99 -7 -131 l28
-30 -65 -65 -66 -66 -36 32 -36 31 -38 -19 c-21 -11 -55 -25 -75 -31 -34 -11
-38 -16 -38 -46 0 -63 -3 -65 -100 -65 -97 0 -100 2 -100 65 0 30 -4 35 -37
46 -21 6 -55 20 -76 31 l-38 19 -36 -31 -36 -32 -66 66 -65 65 27 29 c27 28
35 60 18 78 -5 5 -18 34 -29 64 l-20 55 -46 3 -47 3 3 92 3 92 44 5 c40 5 45
8 56 41 7 19 22 53 33 76 l21 40 -30 28 c-16 16 -29 34 -29 40 0 6 27 37 60
70 45 44 64 57 74 50 65 -48 67 -49 89 -35 12 7 44 21 72 31 47 16 50 20 53
56 2 21 8 43 14 50 14 17 159 18 176 1z m-672 -140 c-21 -30 -20 -54 5 -89 20
-28 20 -30 2 -78 -14 -40 -22 -51 -43 -53 -32 -4 -53 -61 -48 -131 l3 -47 -97
0 -98 0 0 152 c0 165 -7 188 -57 188 -15 0 -23 6 -23 18 0 9 -3 27 -6 40 l-6
22 191 0 192 0 -15 -22z"/>
<path d="M1177 3323 c-4 -3 -7 -217 -7 -475 l0 -468 263 0 262 -1 230 -184
c127 -101 236 -184 243 -185 19 0 16 39 -56 700 l-67 615 -431 3 c-237 1 -434
-1 -437 -5z m203 -648 l0 -154 153 -3 152 -3 0 -50 0 -50 -195 0 -195 0 -3
195 c-1 107 0 200 2 207 3 8 22 13 46 13 l40 0 0 -155z"/>
<path d="M2552 2188 c3 -137 5 -163 18 -163 13 0 15 26 18 163 2 158 2 162
-18 162 -20 0 -20 -4 -18 -162z"/>
<path d="M2750 2191 c0 -106 4 -162 11 -167 23 -14 29 25 26 171 -2 134 -4
150 -19 153 -17 3 -18 -10 -18 -157z"/>
<path d="M2952 2188 c4 -216 22 -214 26 2 2 139 0 160 -13 160 -13 0 -15 -21
-13 -162z"/>
<path d="M1165 1817 c-72 -24 -128 -58 -180 -111 -165 -165 -164 -429 4 -597
168 -168 438 -165 600 6 204 215 141 552 -127 678 -58 27 -80 32 -162 34 -59
2 -110 -2 -135 -10z m247 -43 c105 -34 208 -139 244 -252 25 -78 16 -202 -19
-274 -41 -84 -98 -142 -177 -182 -199 -99 -428 -20 -523 182 -29 61 -32 76
-32 162 0 82 4 103 27 153 86 184 285 271 480 211z"/>
<path d="M1245 1563 c-32 -8 -84 -51 -100 -83 -68 -132 85 -282 215 -209 55
31 80 74 80 136 0 54 -25 101 -70 134 -27 20 -92 31 -125 22z m103 -53 c19
-12 40 -37 49 -57 41 -99 -69 -199 -165 -149 -43 22 -62 53 -62 104 0 97 96
152 178 102z"/>
<path d="M2967 1599 c-108 -17 -214 -105 -251 -208 -41 -117 -5 -264 85 -346
72 -65 113 -80 219 -80 84 0 101 3 145 27 110 58 175 163 175 284 0 104 -22
157 -94 230 -81 81 -169 110 -279 93z m179 -64 c223 -109 205 -443 -28 -521
-63 -21 -168 -15 -223 11 -53 26 -113 88 -137 142 -25 56 -27 163 -4 218 66
157 241 224 392 150z"/>
<path d="M2990 1399 c-50 -11 -90 -59 -90 -110 0 -101 92 -159 180 -114 42 22
60 53 60 107 0 81 -68 134 -150 117z m69 -44 c77 -40 49 -155 -38 -155 -84 0
-116 115 -43 154 34 19 46 19 81 1z"/>
<path d="M10655 2870 c-77 -33 -144 -61 -150 -64 -5 -3 23 -35 63 -73 l73 -68
-1 -687 0 -687 -72 -38 c-42 -22 -74 -46 -76 -55 -3 -17 14 -18 243 -18 229 0
246 1 243 18 -2 9 -34 33 -75 55 l-73 38 0 819 c0 775 -1 820 -17 819 -10 0
-81 -27 -158 -59z"/>
<path d="M4520 2705 c0 -9 38 -34 95 -62 l95 -48 0 -642 0 -642 -92 -48 c-56
-29 -94 -55 -96 -66 -3 -16 16 -17 287 -17 271 0 291 1 291 18 0 11 -30 33
-90 66 l-90 49 0 289 0 289 111 -3 112 -3 225 -352 225 -353 169 0 c159 0 168
1 168 19 0 14 -22 31 -77 61 l-78 42 -215 314 c-118 173 -216 319 -218 324 -2
5 23 22 55 39 185 93 284 254 256 417 -22 124 -88 209 -207 265 -114 53 -165
59 -563 59 -317 0 -363 -2 -363 -15z m615 -114 c180 -21 281 -109 293 -257 9
-122 -48 -218 -166 -276 -64 -32 -72 -33 -204 -36 l-138 -4 0 284 c0 157 3
288 7 291 9 10 114 8 208 -2z"/>
<path d="M12830 2703 c0 -13 27 -32 95 -66 l95 -47 0 -640 0 -640 -95 -47
c-68 -34 -95 -53 -95 -66 0 -17 17 -18 403 -15 449 5 455 5 603 78 185 90 276
243 252 424 -21 154 -165 281 -359 318 l-66 12 77 38 c171 83 255 253 206 421
-29 99 -129 178 -281 223 -52 15 -114 18 -447 21 -371 4 -388 3 -388 -14z
m608 -113 c114 -12 179 -39 231 -95 46 -50 61 -95 61 -186 0 -116 -57 -196
-174 -242 -39 -15 -83 -21 -188 -25 l-138 -5 0 282 0 281 58 0 c31 0 99 -5
150 -10z m239 -709 c129 -46 188 -132 188 -271 0 -65 -5 -83 -31 -130 -18 -32
-51 -70 -79 -91 -80 -62 -126 -72 -337 -77 l-188 -4 0 302 0 302 193 -4 c166
-4 201 -8 254 -27z"/>
<path d="M8741 2362 l-81 -128 -100 -49 c-55 -27 -100 -53 -100 -57 0 -4 43
-8 95 -8 l95 0 0 -382 c0 -246 4 -397 11 -423 14 -52 90 -126 145 -143 23 -6
75 -12 115 -12 89 0 155 27 211 86 39 42 54 82 28 75 -8 -2 -51 -5 -95 -8 -97
-6 -158 8 -197 47 l-28 28 0 366 0 366 155 0 155 0 0 55 0 55 -155 0 -155 0 0
130 c0 72 -4 130 -9 130 -4 0 -45 -58 -90 -128z"/>
<path d="M6460 2249 c-166 -27 -321 -171 -387 -361 -31 -88 -43 -268 -24 -361
19 -87 73 -187 134 -244 101 -96 195 -127 361 -121 127 5 183 25 272 96 53 43
132 147 121 158 -4 4 -38 -7 -78 -25 -166 -74 -313 -79 -440 -15 -61 30 -133
112 -158 178 -23 63 -44 172 -36 186 4 6 138 10 356 10 l349 0 0 63 c-1 166
-79 325 -194 392 -72 41 -182 59 -276 44z m135 -118 c22 -10 52 -31 67 -47 35
-38 76 -129 84 -187 l7 -47 -262 0 c-300 0 -276 -10 -240 105 24 78 81 147
144 176 53 25 147 24 200 0z"/>
<path d="M7318 2192 c-82 -36 -148 -69 -148 -73 0 -3 31 -33 69 -65 l70 -59 0
-352 1 -353 -70 -35 c-51 -26 -70 -41 -70 -55 0 -19 7 -20 250 -20 236 0 250
1 250 18 0 14 -22 28 -82 54 l-83 36 -3 356 -2 356 37 24 c74 48 227 70 316
45 47 -13 106 -63 123 -106 11 -25 14 -106 14 -353 l0 -321 -80 -36 c-58 -26
-80 -41 -80 -54 0 -18 13 -19 250 -19 233 0 250 1 250 18 0 12 -24 29 -75 55
l-75 37 0 368 c0 416 -3 441 -67 507 -68 70 -184 102 -308 84 -80 -11 -149
-45 -237 -115 l-66 -54 -6 28 c-3 15 -8 53 -12 85 -3 31 -9 59 -13 61 -3 2
-72 -26 -153 -62z"/>
<path d="M9732 2250 c-29 -5 -90 -26 -136 -48 -142 -68 -205 -143 -206 -244 0
-60 16 -70 113 -66 l72 3 6 75 c7 90 28 134 72 156 45 24 132 22 182 -3 89
-46 115 -101 115 -242 0 -96 -1 -101 -22 -106 -302 -67 -405 -105 -481 -174
-65 -60 -90 -124 -85 -222 3 -67 7 -83 33 -120 19 -27 50 -54 84 -71 46 -24
65 -28 136 -28 113 0 202 31 299 104 l46 36 16 -33 c39 -78 87 -107 175 -107
75 0 134 25 179 76 49 56 42 64 -50 64 -52 0 -91 5 -110 15 l-29 15 -3 372
c-3 364 -4 374 -25 415 -52 97 -221 156 -381 133z m218 -724 l0 -174 -67 -23
c-88 -30 -231 -33 -280 -6 -42 22 -63 64 -63 122 0 86 41 141 136 181 39 17
237 73 262 74 9 0 12 -41 12 -174z"/>
<path d="M11531 2249 c-101 -20 -203 -95 -246 -183 -21 -43 -26 -69 -26 -124
0 -144 55 -206 278 -313 77 -37 157 -82 176 -99 85 -74 70 -217 -26 -266 -46
-25 -144 -29 -208 -11 -71 21 -114 62 -173 165 -68 117 -76 112 -76 -52 l0
-134 50 -21 c94 -41 165 -53 284 -49 97 3 119 7 171 31 68 32 137 94 168 152
18 33 22 57 22 135 0 160 -33 199 -265 315 -82 41 -165 89 -184 106 -83 73
-67 205 30 245 19 8 60 14 92 14 86 0 132 -33 206 -148 33 -51 65 -92 73 -92
10 0 13 28 13 130 l0 129 -47 21 c-97 43 -233 64 -312 49z"/>
<path d="M15808 2192 c-82 -36 -148 -68 -148 -72 0 -5 32 -36 70 -70 l70 -62
0 -349 0 -349 -75 -37 c-51 -26 -75 -43 -75 -55 0 -17 17 -18 250 -18 237 0
250 1 250 19 0 13 -22 28 -80 54 l-80 36 0 339 c0 329 1 340 21 366 54 69 162
85 271 41 34 -14 65 -25 69 -25 10 0 59 126 59 154 0 31 -39 62 -102 81 -99
29 -191 -14 -269 -125 -24 -33 -46 -60 -50 -60 -4 0 -10 43 -14 95 -4 52 -10
97 -14 99 -3 2 -72 -26 -153 -62z"/>
<path d="M17005 2249 c-181 -30 -334 -178 -401 -386 -21 -66 -30 -263 -15
-336 19 -87 73 -187 134 -244 101 -96 195 -127 361 -121 126 5 183 25 271 95
52 41 133 148 122 159 -4 4 -38 -7 -78 -25 -166 -74 -313 -79 -440 -15 -61 30
-133 112 -158 178 -23 63 -44 172 -36 186 4 6 138 10 356 10 l349 0 0 63 c-1
166 -79 325 -194 392 -71 40 -183 59 -271 44z m130 -118 c22 -10 52 -31 67
-47 35 -38 76 -129 84 -187 l7 -47 -262 0 c-299 0 -276 -10 -241 102 24 77 84
152 145 179 53 25 147 24 200 0z"/>
<path d="M18085 2250 c-56 -9 -129 -36 -194 -73 -95 -54 -151 -132 -154 -214
-3 -63 16 -75 113 -71 l75 3 5 75 c9 126 52 173 157 173 70 0 138 -35 178 -92
28 -40 30 -49 33 -156 4 -113 3 -114 -20 -119 -180 -41 -321 -80 -373 -104
-127 -60 -196 -153 -199 -267 -2 -113 49 -192 148 -230 35 -14 65 -16 133 -13
106 6 179 32 263 94 l60 44 13 -33 c17 -38 77 -94 112 -103 14 -3 54 -5 88 -2
49 3 71 10 108 35 49 34 84 77 74 93 -3 6 -40 10 -81 10 -47 0 -86 6 -104 15
l-29 15 -3 367 c-3 365 -3 368 -27 417 -49 99 -216 160 -376 136z m215 -724
l0 -174 -67 -23 c-88 -30 -231 -33 -280 -6 -42 22 -63 64 -63 122 0 89 40 140
145 185 45 19 221 68 253 69 9 1 12 -40 12 -173z"/>
<path d="M14280 2212 c0 -12 24 -29 75 -55 l75 -37 0 -368 c0 -435 1 -445 81
-516 68 -61 130 -79 253 -74 79 3 100 7 156 35 36 18 92 55 125 82 l60 50 3
-75 3 -74 174 0 c165 0 175 1 175 19 0 14 -20 27 -80 51 l-80 32 0 474 0 474
-180 0 c-157 0 -180 -2 -180 -16 0 -10 31 -30 85 -55 l85 -39 0 -354 0 -355
-27 -19 c-70 -49 -241 -77 -319 -52 -57 18 -104 57 -125 104 -17 38 -19 71
-19 414 l0 372 -170 0 c-156 0 -170 -1 -170 -18z"/>
<path d="M18802 2213 c2 -11 32 -32 76 -52 l72 -34 0 -367 c0 -406 4 -440 62
-506 17 -19 54 -47 82 -62 47 -25 61 -27 166 -27 108 0 119 2 180 31 36 17 93
54 128 83 l62 52 0 -76 0 -75 175 0 c165 0 175 1 175 19 0 14 -20 27 -80 51
l-80 32 0 474 0 474 -175 0 c-165 0 -175 -1 -175 -19 0 -14 20 -27 80 -52 l80
-34 0 -357 0 -357 -26 -20 c-65 -51 -249 -77 -329 -47 -61 24 -94 52 -116 100
-17 38 -19 73 -19 414 l0 372 -171 0 c-157 0 -170 -1 -167 -17z"/>
</g>
</svg>
